<?xml version="1.0" encoding="UTF-8"?>
<svg id="Layer_1" xmlns="http://www.w3.org/2000/svg" version="1.1" viewBox="0 0 20 20">
  <!-- Generator: Adobe Illustrator 29.0.1, SVG Export Plug-In . SVG Version: 2.1.0 Build 192)  -->
  <defs>
    <style>
      .st0 {
        fill: #fff;
      }
    </style>
  </defs>
  <path class="st0" d="M18.4,9c-.6,0-1,.5-1,1h0v6.3c0,.6-.5,1-1,1H3.8c-.6,0-1-.5-1-1h0V3.8c0-.6.5-1,1-1h6.3c.6,0,1-.5,1-1,0-.6-.5-1-1-1H3.8C2,.6.6,2,.6,3.8h0v12.6c0,1.7,1.4,3.1,3.1,3.1h12.6c1.7,0,3.1-1.4,3.1-3.1v-6.3c0-.6-.5-1-1-1h0Z"/>
  <path class="st0" d="M14.2,2.7h1.7l-6.6,6.6c-.4.4-.4,1.1,0,1.5,0,0,0,0,0,0,.4.4,1.1.4,1.5,0,0,0,0,0,0,0l6.6-6.6v1.7c0,.6.5,1,1,1h0c.6,0,1-.5,1-1h0V1.7c0-.6-.5-1-1-1h-4.2c-.6,0-1,.5-1,1s.5,1,1,1h0Z"/>
</svg>